<?xml version="1.0" encoding="UTF-8"?>
<svg id="Livello_1" data-name="Livello 1" xmlns="http://www.w3.org/2000/svg" viewBox="0 0 448 512">
  <defs>
    <style>
      .cls-1 {
        fill: #fff;
      }
    </style>
  </defs>
  <path class="cls-1" d="M272,304h-96C78.8,304,0,382.8,0,480c0,17.67,14.33,32,32,32H416c17.67,0,32-14.33,32-32,0-97.2-78.8-176-176-176ZM48.99,464c7.9-63.1,61.81-112,127.01-112h96c65.16,0,119.1,48.95,127,112H48.99Zm175.01-208c70.69,0,128-57.31,128-128S294.69,0,224,0,96,57.31,96,128s57.3,128,128,128Zm0-208c44.11,0,80,35.89,80,80s-35.89,80-80,80-80-35.9-80-80,35.9-80,80-80Z"/>
</svg>