<?xml version="1.0" encoding="UTF-8"?>
<svg id="Livello_1" data-name="Livello 1" xmlns="http://www.w3.org/2000/svg" viewBox="0 0 448 512">
  <defs>
    <style>
      .cls-1 {
        fill: #fff;
      }
    </style>
  </defs>
  <path class="cls-1" d="M160,112c0-35.3,28.7-64,64-64s64,28.7,64,64v48H160v-48Zm-48,48H48c-26.5,0-48,21.5-48,48v208c0,53,43,96,96,96H352c53,0,96-43,96-96V208c0-26.5-21.5-48-48-48h-64v-48C336,50.1,285.9,0,224,0S112,50.1,112,112v48Zm24,96c-13.3,0-24-10.7-24-24s10.7-24,24-24,24,10.7,24,24-10.7,24-24,24Zm200-24c0,13.3-10.7,24-24,24s-24-10.7-24-24,10.7-24,24-24,24,10.7,24,24Z"/>
</svg>