<?xml version="1.0" encoding="UTF-8"?>
<svg id="Livello_1" data-name="Livello 1" xmlns="http://www.w3.org/2000/svg" viewBox="0 0 512 437.85">
  <defs>
    <style>
      .cls-1 {
        fill: #fff;
      }
    </style>
  </defs>
  <path class="cls-1" d="M244,41.85l11.1,12,12-11.98C300.6,9.22,347-5.64,392.6,1.95c68.9,11.48,119.4,71.1,119.4,141v5.8c0,41.5-17.2,81.2-47.6,109.5l-180.7,168.7c-7.5,7-17.4,10.9-27.7,10.9s-20.2-3.9-27.7-10.9L47.59,258.25C17.23,229.95,0,190.25,0,148.75v-5.8C0,73.05,50.52,13.43,119.4,1.95c44.7-7.59,92,7.27,124.6,39.9-.9,0,0,.01,0,0h0Zm11.1,79.9l-45-46.8c-21.7-20.82-52.5-30.7-82.8-25.66-45.75,7.63-79.3,47.26-79.3,93.66v5.8c0,28.2,11.71,55.2,32.34,74.4l175.66,164,175.7-164c20.6-19.2,32.3-46.2,32.3-74.4v-5.8c0-46.4-33.6-86.03-79.3-93.66-30.3-5.04-61.1,4.84-82.8,25.66l-46.8,46.8Z"/>
</svg>